<svg xmlns="http://www.w3.org/2000/svg">
  
<!--  
  <symbol id="" viewBox="">
    <title></title>
    
  </symbol>
  
  
<svg xmlns="http://www.w3.org/2000/svg" viewBox="">  	 
<g fill="#ffffff">  
-->


<!--  Logo  -->   
  <!--  logo in header  -->
  <symbol id="juliana-logo-simple" viewBox="0 0 807.5 120">
    <title>Juliana Bicycles</title>
    <path d="M182.9,6.44V70.56c0,9.63-1.85,14.19-3.42,16.31-3.35,4.61-8,6.84-14.24,6.84s-10.87-2.23-14.19-6.78c-2.27-3.23-3.41-8.73-3.41-16.37V6.44h-23.4V74.69c0,11.54,3.71,21.26,11,28.81a42,42,0,0,0,59.39.69l.08-.08c.2-.2.41-.4.6-.61,7.28-7.55,11-17.27,11-28.81V6.44Zm15,68.25c0,9.46-2.81,17-8.6,23a33.75,33.75,0,0,1-47.71.36l0,0c-.12-.11-.23-.22-.34-.34-5.79-6-8.63-13.55-8.63-23V14.84h6.67V70.6c0,9.54,1.6,16.46,5,21.22,5,6.83,12,10.3,21,10.3s16-3.47,21-10.3c3.35-4.58,5-11.53,5-21.22V14.84h6.66Z" transform="translate(-1)"/>
    <path d="M282.05,91.82V6.44h-23.4V114.32h59V91.82ZM309.22,106H267V14.84h6.67v85.41h35.54Z" transform="translate(-1)"/>
    <path d="M364,6.44V114.32h23.37V6.44ZM379,106h-6.63V14.84H379Z" transform="translate(-1)"/>
    <path d="M640.34,6.28V68.44L567.79,0V114.38h23.37V51.77L663.71,120V6.28Zm15,95L582.78,33v73.82h-6.66v-88l72.55,68.44V13.84h6.66Z" transform="translate(-1)"/>
    <path d="M479.85,18.48l41.3,87.77h-7.87l-10.5-22.13H455.45l-11,22.13h-7.62l43-87.77M480,0,424,114.25h25.5l11-22.13h37.12l10.5,22.13h25.63L480,0Z" transform="translate(-1)"/><path class="cls-2" d="M479.21,50.78l8.68,18.29H470.11l9.1-18.29m.17-16.61-20.63,42.9H499.5Z" transform="translate(-1)"/>
    <path d="M51.54,6.44V70.56c0,9.63-1.85,14.19-3.39,16.31a15.85,15.85,0,0,1-5.27,4.7,15.17,15.17,0,0,1-5.14,1.81,8.59,8.59,0,0,1-1.6.24,15.07,15.07,0,0,1-3,.25c-7.63,0-14-4.32-18-10.21L1,100.15a32.72,32.72,0,0,0,2.87,3.35c.6.64,1.24,1.24,1.84,1.81A42.1,42.1,0,0,0,64,103.5C71.27,96,75,86.23,75,74.69V6.44Zm15,68.25c0,9.46-2.8,17-8.6,23a32,32,0,0,1-24.07,10.06A31.63,31.63,0,0,1,11.16,99l3.93-4.53c5.33,5.15,11.44,7.41,19.13,7.41,9,0,15.7-3.24,20.66-10.07,3.35-4.58,5-11.53,5-21.22V14.84h6.64Z" transform="translate(-1)"/>
    <path d="M754.6,18.48l41.3,87.77H788l-10.5-22.13H730.2l-11,22.13h-7.62l43-87.77M754.75,0l-56,114.25h25.5l11-22.13h37.13l10.5,22.13H808.5L754.75,0Z" transform="translate(-1)"/><path class="cls-2" d="M754,50.78l8.68,18.29H744.86L754,50.78m.16-16.61L733.5,77.07h40.75Z" transform="translate(-1)"/>    
  </symbol>
  
   <!--  logo inline  -->   
   <symbol id="santa-cruz-logo--inline" viewBox="0 0 445.7 35.73">
     <title>Santa Cruz Bicycles</title>  
     <path class="cls-1" d="M647.41,374.37l-16.4,28H616.74l16.4-28H617.57l-16.4,28H584l-2.29-22.15-13,22.15H554.5l20.91-35.69h17.32L595,388.54l12.81-21.87h56.33l-4.51,7.69Zm145.91,20.31c-2.47,4.23-1.08,7.65,3.11,7.7h26.33c4.25,0,9.71-3.45,12.2-7.7h0l11.9-20.31H871l-32.71,28H879l4.51-7.7H865.33l30.59-28H837.08l-16.4,28H807.59l16.4-28H809.72Zm-239-28H541l-40.71,35.7h54Zm-14.06,28H523.37l17.29-15.16Zm153.07-28H680l-40.72,35.7h54Zm-14.07,28H662.37l17.29-15.16Zm-205.95-14h0c-2.47,4.22-1.08,7.66,3.11,7.7h16.94l-3.69,6.3H465.08l-4.51,7.7h31.14c4.25,0,9.71-3.45,12.21-7.7h0l3.7-6.3h0c2.5-4.25,1.07-7.7-3.19-7.7H487.56l3.69-6.31h24.57l4.51-7.69H489.18c-4.25,0-9.72,3.45-12.21,7.69h0Zm248.86,14L734,374.37h20.35l4.51-7.69H732c-4.25,0-9.71,3.45-12.2,7.69h0l-11.9,20.31h0l0,0h0c-2.47,4.22-1.08,7.65,3.11,7.7h27l4.52-7.72Zm42.81-28L744,402.37H758.3l6.9-11.77h2.86l4.88,11.77h15L782,390.6h0c4.25,0,9.72-3.45,12.21-7.7h0l5-8.53h0c2.49-4.25,1.07-7.7-3.19-7.7H764.95ZM780,382.9H769.7l5-8.53H785Zm120.44-15.66h-1.55v3.28H898v-3.28h-1.55v-.57h4Zm.72-.57h1.32l1,2.32c.14.32.21.54.21.54h0s.07-.22.2-.55l1-2.31h1.31v3.85h-.89V367.4h0a7,7,0,0,1-.28.74l-1,2.38h-.71l-1-2.38a7.07,7.07,0,0,1-.28-.74h0v3.12h-.83Z" transform="translate(-460.57 -366.67)"/>  
   </symbol>
  
  
  <!--  logo juliana  -->
<!--
  <symbol id="juliana-logo" viewBox="0 0 433 81.8">
  <title>Juliana Bicycles</title>
	<path fill="#636466" d="M225.2,0c-6.3,0-11.9,4.8-12.8,10.9c-0.4,2.6,0.1,5.1,1.3,7.2c-1.1,0.6-2,1.5-2.6,2.7l-6.1,14
		c-0.5,1.2-0.9,2.3-1.3,3.3c-2.9,2.4-8.2,4.1-13.4,4.1h-9.1l14.2-31.9c0.8-1.7,0.6-3.7-0.4-5.2c-1-1.6-2.7-2.5-4.6-2.5h-7.9
		c-2.2,0-4.1,1.3-5,3.3l-13.1,29.5c-0.4,0.9-0.7,1.8-1,2.7c-2.8,2.5-8.3,4.2-13.6,4.2h-9l7.7-17c0.8-1.7,0.6-3.7-0.4-5.2
		c-1-1.6-2.7-2.5-4.6-2.5h-7c-1.7,0-3.3,0.8-4.3,2.1l-0.4,0.5c0,0,0-0.1,0-0.1c-1-1.6-2.7-2.5-4.6-2.5h-7.9c-2.2,0-4.1,1.3-5,3.2
		l-7.6,17.1c-2.8,2.6-8.3,4.4-13.8,4.4h-6.6c-0.9,0-1.8,0.2-2.6,0.4l14.5-32.3c0.8-1.7,0.6-3.7-0.4-5.2c-1-1.6-2.7-2.5-4.6-2.5h-8.3
		c-2.2,0-4.1,1.3-5,3.3L61.5,47.7c-5.8,12.3-19.4,21-32.9,21c-6.2,0-11.3-1.9-11.3-3.4c0,0,0-0.1,0-0.1c0,0,0-0.1,0.1-0.1
		c1.4-3.2,6.2-5.9,13.5-7.6c7.6-1.8,16-2,20.3-2c3,0,5.5-2.5,5.5-5.5c0-3-2.1-5.4-6.3-7.1C48.4,42,45,41,40.4,41
		c-11.5,0-20.8,1.5-27.5,4.6c-3.9,1.8-7,4.1-9.2,6.8C1.2,55.6,0,59.2,0,63.2c0,4,1.6,11.4,12,15.6c6.6,2.7,13.9,2.9,16.7,2.9
		c11.2,0,21.1-2.4,29.5-7c8.9-4.9,16-12.5,21-22.3c0-0.1,0.1-0.2,0.1-0.3l0.3-0.8c1,2.4,3.5,4,6.5,4h5.8c5.1,0,9.7-0.8,13.9-2.4
		c1.7,2,4.3,3.2,7.3,3.2c4.1,0,7.3-1.7,10.3-4.6c1.8,2.5,4.6,3.9,7.8,3.9H149c5.9,0,11.1-1.1,15.7-3.2c1.8,2,4.7,3.2,7.9,3.2h16.9
		c5.8,0,11.1-1.1,15.7-3.2c1.8,2,4.6,3.2,7.7,3.2h16.8c5.8,0,11.1-1,15.6-3.1c2.2,2.8,6.1,3.9,9.3,3.9c1,0,1.9-0.1,2.8-0.3
		c0,0,0,0,0.1,0c2.6-0.6,5-1.9,7.3-3.4c1.6,1.6,4.1,2.9,8.3,2.9h17.1c4.1,0,7.9-0.5,11.4-1.5c1,1,2.4,1.5,3.8,1.5h6.9
		c1.7,0,3.2-0.8,4.3-2.1l4.2-5.2c0.3,1,0.7,2,1.3,2.8c1.8,2.8,4.9,4.5,8.5,4.5h16.7c5.8,0,11-1,15.6-3.1c2.2,2.8,6.1,3.9,9.3,3.9
		c1,0,1.9-0.1,2.8-0.3c0,0,0,0,0.1,0c2.6-0.6,5-1.9,7.3-3.4c1.6,1.6,4.1,2.9,8.3,2.9h17.1c11.8,0,19.1-4.3,23.1-7.9
		c0.1-0.1,0.1-0.1,0.2-0.2c1.3-1.2,2-2.9,2-4.6c0-3.5-2.9-6.4-6.4-6.4c-1.5,0-3,0.6-4.2,1.5c-3.4,2.8-8.6,4.5-13.9,4.5h-9.2l7.7-17
		c0.8-1.7,0.6-3.7-0.4-5.2c-1-1.6-2.7-2.5-4.6-2.5h-8.9c-8.9,0-17.4,3.2-23.5,8.9c-2.2,2-5.9,6.1-7.9,11.4
		c-2.8,2.6-8.4,4.3-13.7,4.3H339l4.8-10.7c0,0,0,0,0,0c1.6-3.7,1.5-7.4-0.3-10.3c-1.7-2.5-4.5-4-7.8-4c-2.7,0-4.9,0.6-6.9,1.6
		c-1-0.8-2.2-1.3-3.5-1.3h-7.8c-2.2,0-4.1,1.3-5,3.2l-7.6,17c-2.8,2.6-8.4,4.4-13.9,4.4h-9.2l7.7-17c0.8-1.7,0.6-3.7-0.4-5.2
		c-1-1.6-2.7-2.5-4.6-2.5h-8.9c-8.9,0-17.4,3.2-23.5,8.9c-2.2,2-5.9,6.1-7.9,11.4c-2.8,2.6-8.4,4.4-13.8,4.4h-9l7.6-17
		c0.5-1.1,0.6-2.3,0.3-3.4c3.4-1.9,6-5.3,6.6-9.3c0.5-3.2-0.3-6.4-2.3-8.8C231.7,1.4,228.6,0,225.2,0L225.2,0z"/>
	<path fill="#ffffff" d="M225.2,5.5c3.6,0,6.1,2.8,5.5,6.3c-0.5,3.5-3.9,6.3-7.4,6.3c-3.6,0-6-2.8-5.5-6.3
		C218.3,8.3,221.7,5.5,225.2,5.5 M190.4,8.1l-17.6,39.6h17.6c6.5,0,14.1-2.2,18.2-6.6c0.3-1.2,0.8-2.6,1.5-4.1l6.1-14h8l-11,24.7
		h17.4c6.7,0,14.6-2.3,18.6-6.9c1.1-3.9,3.9-7.6,6.9-10.4c5.3-5,12.8-7.4,19.7-7.4h8.9l-11.2,24.7H291c6.6,0,14.5-2.3,18.5-6.8
		l8-17.9h7.8L318,39.3l7.3-9.5c3.9-5.1,6.1-7,10.4-7c3.3,0,4.8,2.8,3.1,6.6l-8.2,18.4h17.5c6.7,0,14.5-2.3,18.5-6.9
		c1.1-3.9,3.9-7.6,6.9-10.4c5.3-5,12.8-7.4,19.7-7.4h8.9l-11.2,24.7h17.7c6.7,0,13.1-2.1,17.5-5.8c0.1-0.1,0.4-0.2,0.6-0.2
		c0.5,0,1,0.4,1,1c0,0.3-0.1,0.5-0.3,0.7l0,0c-3,2.7-8.9,6.5-19.5,6.5h-17.1c-5,0-7-2.9-4.2-8.7c-2.7,3.3-7.9,8.3-12.4,9.3
		c-0.5,0.1-1.1,0.2-1.7,0.2c-2.3,0-4.7-0.8-5.3-2.4c-0.6-1.4-0.9-2.9-0.8-4.4c-3.1,2.5-8.9,6-18.7,6h-16.7c-5,0-6.3-5.5-3.3-12.3
		l3.8-8.6c0,0,0.8-1.3,0.3-1.6c-0.2-0.1-0.3-0.2-0.5-0.2c-0.7,0-1.3,1-2.2,2.1l-16.4,20.6h-6.9l2.2-4.9c-3.4,2.4-8.9,4.9-17.4,4.9
		h-17.1c-5,0-7-2.9-4.2-8.7c-2.7,3.3-7.9,8.3-12.4,9.3c-0.5,0.1-1.1,0.2-1.7,0.2c-2.3,0-4.7-0.8-5.3-2.4c-0.6-1.4-0.9-2.9-0.8-4.4
		c-3.1,2.5-8.9,6-18.8,6H213c-2,0-3.6-0.8-4.2-2.2c-0.5-1.1-0.7-2.2-0.7-3.6c-3.2,2.5-8.9,5.7-18.5,5.7h-16.9
		c-1.9,0-3.8-0.8-4.4-2.2c-0.4-1-0.6-2.3-0.5-3.7c-3.1,2.5-8.9,5.9-18.7,5.9h-17.7c-3.9,0-6.1-3.9-2.3-12.3l1.7-3.9l-7.3,9.5
		c-4.3,5.7-6.9,7.5-10.3,7.5c-3.3,0-4.6-2.5-3.7-5.8c-3.3,2.4-8.9,5-17.5,5c0,0-3.9,0-5.8,0c-2,0-2.1-2.2,0-2.2c2.1,0,6.6,0,6.6,0
		c6.6,0,14.3-2.3,18.4-6.7l8-17.9h7.9L117.7,44c0,0-0.8,1.3-0.3,1.6c0.2,0.1,0.3,0.2,0.5,0.2c0.7,0,1.3-1,2.2-2.1L136.4,23h7
		l-11.1,24.7h17.5c6.6,0,14.4-2.3,18.4-6.8c0.3-1.1,0.7-2.2,1.2-3.3l13.1-29.5H190.4 M375.9,46.1c5.6,0,15.9-15.8,17.5-20.2l0.3-0.6
		c-0.1,0-0.2,0-0.3,0c-5.8,0-12.7,4.4-16.5,10C374,39.7,372.3,46.1,375.9,46.1 M258.4,46.1c5.6,0,15.9-15.8,17.5-20.2l0.3-0.6
		c-0.1,0-0.2,0-0.3,0c-5.8,0-12.7,4.4-16.5,10C256.5,39.7,254.8,46.1,258.4,46.1 M93.1,8.1L74.4,49.9C65,68.3,48.8,76.3,28.7,76.3
		c-8.1,0-23.3-2.4-23.3-13.1c0-11.3,14-16.7,34.9-16.7c6.9,0,10.9,2.7,10.9,3.5c-10.6,0-33.8,1.5-38.8,12.9
		c-0.4,0.8-0.5,1.6-0.5,2.4c0,7.4,11.3,8.9,16.7,8.9c15.7,0,31.2-10,37.9-24.2L84.9,8.1H93.1"/>
  </symbol>
-->


<!--  Header and Navigation Icons  -->    
  <!--  Person  -->
  <symbol id="user-account" viewBox="0 0 20 20">
    <title>User Account</title>
    <path d="M683.83,377.5a3.43,3.43,0,1,0,3.43,3.43A3.43,3.43,0,0,0,683.83,377.5Zm0,5.19a1.76,1.76,0,1,1,1.76-1.76A1.76,1.76,0,0,1,683.83,382.69Zm0-8.52a10,10,0,1,0,10,10A10,10,0,0,0,683.83,374.17Zm5.83,15.94a8.31,8.31,0,0,1-11.67,0v-.57a4.73,4.73,0,0,1,1.92-3.7,6.55,6.55,0,0,0,7.82,0,4.73,4.73,0,0,1,1.92,3.7Zm-1.54-6-.55-.34-.47.46a4.84,4.84,0,0,1-6.55,0l-.47-.46-.55.34a6.68,6.68,0,0,0-3,4.07,8.33,8.33,0,1,1,14.64,0A6.68,6.68,0,0,0,688.13,384.08Z" transform="translate(-673.83 -374.17)"/>
  </symbol>
  
  <!--  Shopping Cart  -->
  <symbol id="cart-empty" viewBox="0 0 25.17 18.65">
    <title>Shopping Cart Empty</title>
    <path d="M677.67,403.42a2.21,2.21,0,1,0,2.21,2.21A2.21,2.21,0,0,0,677.67,403.42Zm9.63,0a2.21,2.21,0,1,0,2.21,2.21A2.21,2.21,0,0,0,687.29,403.42Z" transform="translate(-668.13 -389.19)"/><path d="M691.25,401.44H673.62l-2.29-10.25h-2.2a1,1,0,0,1,0-2h3.8l2.29,10.25h14.36l1.73-9.43a1,1,0,1,1,2,.36Z" transform="translate(-668.13 -389.19)"/>
  </symbol>
  
  
  <!--  Shopping Cart Active  -->
  <symbol id="cart-active" viewBox="0 0 25.17 18.65">
    <title>Shopping Cart Active</title>
    <path d="M677.67,403.42a2.21,2.21,0,1,0,2.21,2.21A2.21,2.21,0,0,0,677.67,403.42Zm9.63,0a2.21,2.21,0,1,0,2.21,2.21A2.21,2.21,0,0,0,687.29,403.42Z" transform="translate(-668.13 -389.19)"/><path d="M691.25,401.44H673.62l-2.29-10.25h-2.2a1,1,0,0,1,0-2h3.8l2.29,10.25h14.36l1.73-9.43a1,1,0,1,1,2,.36Z" transform="translate(-668.13 -389.19)"/>    
    <circle fill="#d29e0e" cx="14.29" cy="3.31" r="2.21"/>    
  </symbol>  

  <!--  Search -->
  <symbol id="search" viewBox="0 0 486 503.39">
    <title>Search</title>
    <path d="M491.61,462.81,371.8,338.21a202.59,202.59,0,0,0,47.68-130.66c0-112.07-91.18-203.24-203.24-203.24S13,95.48,13,207.55s91.18,203.24,203.24,203.24A201.07,201.07,0,0,0,332.68,374L453.4,499.56a26.51,26.51,0,1,0,38.21-36.75ZM216.24,57.33c82.83,0,150.22,67.39,150.22,150.22S299.08,357.77,216.24,357.77,66,290.38,66,207.55,133.41,57.33,216.24,57.33Z" transform="translate(-13 -4.31)"/>
  </symbol>
  
<!--  General Icons  -->
  
  <!--   Triangles filled for Select Inputs  -->
  <symbol id="triangle-black--down" viewBox="0 0 9 6">
    <title>Triangle Icon Right</title>
    <path d="M683,371.5l-4.5-6h9Z" transform="translate(-678.5 -365.5)"/>
  </symbol>
  
  <symbol id="triangle-black--up" viewBox="0 0 9 6">
    <title>Triangle Icon Right</title>
    <path d="M687.5,371.5h-9l4.5-6Z" transform="translate(-678.5 -365.5)"/>
  </symbol> 
  
  <symbol id="triangle-black--right" viewBox="0 0 9 6">
    <title>Triangle Icon Right</title>
    <path d="M680,373v-9l6,4.5Z" transform="translate(-680 -364)"/>
  </symbol>    
  
  <!--  Arrow left/right  -->
  <symbol id="arrow-left" viewBox="0 0 512 352.34">
    <title>Prev</title>
    <path d="M7,272.83,159.33,425.2A23.81,23.81,0,0,0,193,391.53L81.28,279.81H488.19a23.81,23.81,0,1,0,0-47.61H81.28L193,120.47A23.81,23.81,0,0,0,159.34,86.8L7,239.17A23.81,23.81,0,0,0,7,272.83Z" transform="translate(0 -79.83)"/>
  </symbol>  
  
  <symbol id="arrow-left--gold" viewBox="0 0 512 352.34">
    <title>Prev</title>
    <path fill="#d29e0e" d="M7,272.83,159.33,425.2A23.81,23.81,0,0,0,193,391.53L81.28,279.81H488.19a23.81,23.81,0,1,0,0-47.61H81.28L193,120.47A23.81,23.81,0,0,0,159.34,86.8L7,239.17A23.81,23.81,0,0,0,7,272.83Z" transform="translate(0 -79.83)"/>
  </symbol>    
  
  <symbol id="arrow-right" viewBox="0 0 512 352.34">
    <title>Next</title>
    <path d="M505,239.17,352.66,86.8A23.81,23.81,0,0,0,319,120.47L430.72,232.19H23.81a23.81,23.81,0,0,0,0,47.61H430.72L319,391.53a23.81,23.81,0,0,0,33.67,33.67L505,272.83A23.81,23.81,0,0,0,505,239.17Z" transform="translate(0 -79.83)"/>
  </symbol> 

  <symbol id="arrow-right--gold" viewBox="0 0 512 352.34">
    <title>Next</title>
    <path fill="#d29e0e" d="M505,239.17,352.66,86.8A23.81,23.81,0,0,0,319,120.47L430.72,232.19H23.81a23.81,23.81,0,0,0,0,47.61H430.72L319,391.53a23.81,23.81,0,0,0,33.67,33.67L505,272.83A23.81,23.81,0,0,0,505,239.17Z" transform="translate(0 -79.83)"/>
  </symbol>        
  
  <!--  Small X  -->
  <symbol id="close--small" viewBox="0 0 512 512">
    <title>Close</title>
    <polygon points="512 59.09 452.91 0 256 196.91 59.09 0 0 59.09 196.91 256 0 452.91 59.09 512 256 315.09 452.91 512 512 452.91 315.09 256 512 59.09"/>
  </symbol>  
 
  <!--  Small X White -->
  <symbol id="close--small-white" viewBox="0 0 512 512">
    <title>Close</title>
    <polygon fill="#fff" points="512 59.09 452.91 0 256 196.91 59.09 0 0 59.09 196.91 256 0 452.91 59.09 512 256 315.09 452.91 512 512 452.91 315.09 256 512 59.09"/>
  </symbol> 
  
  
  <!--  Video Play  -->
  <symbol id="video-play--triangle" viewBox="0 0 14 16">
    <title>Video Play</title>
    <path d="M689.49,373.49l-14,8v-16Z" transform="translate(-675.49 -365.49)"/>    
  </symbol>
  
  
<!--   Social Media -->

  <!--  share  -->
  <symbol id="share" viewBox="0 0 87.63 99.31">
    <title>Juliana Bicycles Share on Social Media</title>
    <path d="M410.57,308.23a18.89,18.89,0,0,0-12.94,5.14l-18.13-8.57a20.13,20.13,0,0,0,0-13.67l18.1-8.56a18.89,18.89,0,0,0,13,5.2,19.72,19.72,0,1,0-19.24-19.71,20.06,20.06,0,0,0,.95,6.12l-18.48,8.74a18.92,18.92,0,0,0-12.36-4.62,19.72,19.72,0,0,0,0,39.42A18.92,18.92,0,0,0,373.86,313l18.44,8.72a20,20,0,0,0-1,6.19A19.25,19.25,0,1,0,410.57,308.23Zm0,29.52a9.82,9.82,0,1,1,9.58-9.81A9.71,9.71,0,0,1,410.57,337.75Zm0-59.88a9.82,9.82,0,1,1,9.58-9.81A9.71,9.71,0,0,1,410.57,277.87Zm-49.14,10.32A9.71,9.71,0,0,1,371,298a9.91,9.91,0,0,1-1.73,5.62s-0.44.58-.65,0.85a9.47,9.47,0,0,1-7.2,3.35A9.82,9.82,0,0,1,361.43,288.19Z" transform="translate(-342.19 -248.35)"/>
  </symbol>
  
  <!--  Facebook  -->
  <symbol id="facebook" viewBox="0 0 244.05 486.39">
    <title>Juliana Bicycles on Facebook</title>
    <path d="M273.44,159.35l.12-42c0-21.86,1.52-33.56,32.83-33.56h57.94V0h-83c-80.56,0-99.1,41.62-99.1,110l.09,49.37-61.13,0V243.2h61.13v243.2h91.17l.06-243.2,82.78,0,8.91-83.81Z" transform="translate(-121.17)"/>
  </symbol>
  
  <!--  Twitter  -->
  <symbol id="twitter" viewBox="0 0 612 497.12">
    <title>Juliana Bicycles on Twitter</title>
    <path class="cls-1" d="M612,116.26A250.71,250.71,0,0,1,539.91,136,126.07,126.07,0,0,0,595.1,66.62,253.1,253.1,0,0,1,515.32,97.1,125.64,125.64,0,0,0,301.39,211.56,356.43,356.43,0,0,1,42.64,80.39,125.69,125.69,0,0,0,81.5,248a125.56,125.56,0,0,1-56.87-15.76v1.57a125.67,125.67,0,0,0,100.69,123.1,127.17,127.17,0,0,1-33.08,4.4,120.5,120.5,0,0,1-23.63-2.33,125.61,125.61,0,0,0,117.25,87.19A251.89,251.89,0,0,1,29.94,499.8,266.81,266.81,0,0,1,0,498.07a354.88,354.88,0,0,0,192.44,56.49c230.95,0,357.19-191.29,357.19-357.19l-.42-16.25A250.7,250.7,0,0,0,612,116.26Z" transform="translate(0 -57.44)"/>
  </symbol>

  <!--  Pinterest  -->
  <symbol id="pinterest" viewBox="0 0 508.52 508.52">
    <title>Juliana Bicycles on Pinterest</title>
			<path d="M254.26,0C113.845,0,0,113.845,0,254.26s113.845,254.26,254.26,254.26
				s254.26-113.845,254.26-254.26C508.52,113.813,394.675,0,254.26,0z M274.092,323.005c-18.593-1.43-26.379-10.647-40.936-19.514
				c-8.009,42.016-17.798,82.317-46.784,103.325c-8.963-63.47,13.126-111.143,23.392-161.773
				c-17.48-29.462,2.098-88.673,38.965-74.085c45.354,17.957-39.315,109.427,17.544,120.869
				c59.338,11.918,83.588-103.007,46.784-140.383c-53.204-53.967-154.781-1.24-142.29,76.024c3.051,18.879,22.534,24.6,7.787,50.693
				c-34.039-7.501-44.209-34.389-42.906-70.176c2.098-58.575,52.632-99.575,103.325-105.264
				c64.105-7.183,124.238,23.519,132.533,83.81C380.881,254.578,342.583,328.313,274.092,323.005z"/>    
  </symbol>
    
  <!--  Instagram  -->
  <symbol id="instagram" viewBox="0 0 486.39 486.39">
    <title>Juliana Bicycles on Instagram</title>    
    <path d="M464.41,0H21.95A22,22,0,0,0,0,21.92V464.47a22,22,0,0,0,21.95,21.92H464.41a22,22,0,0,0,22-21.92V21.92A22,22,0,0,0,464.41,0ZM243.2,158.32a84.88,84.88,0,1,1-84.88,84.88A84.87,84.87,0,0,1,243.2,158.32Zm182.4,267.27H60.8V212.8h40a145.26,145.26,0,0,0-3.31,30.4c0,80.35,65.36,145.67,145.67,145.67S388.87,323.54,388.87,243.2a147.36,147.36,0,0,0-3.28-30.4h40v212.8Zm0-273.6h-91.2V60.8h91.2Z"/>
  </symbol>  
  
  <!--  Vimeo -->
  <symbol id="vimeo" viewBox="0 0 508.54 443.68">
    <title>Juliana Bicycles on Vimeo</title>
    <path d="M291.7,151.83C349.77,117,380.85,166,351,221.53s-56.79,91.66-71,91.66-25.08-37.12-41.32-102C222,144.08,222.07,23.24,152.27,36.94,86.48,49.88,0,153.14,0,153.14l20.66,27.08s42.59-33.56,56.79-16.78,68.36,219.46,86.48,256.87c15.8,32.74,59.34,76.15,107.14,45.2S477.56,299,506,138.93,315,12.44,291.7,151.83Z" transform="translate(0 -32.43)"/>      
  </symbol>
    
  <!--  Mail/Newsletter  -->
  <symbol id="email" viewBox="0 0 486.39 364.79">
    <title>Juliana Bicycles Newsletter Signup</title>
    <path class="cls-1" d="M456,60.8H30.4A30.41,30.41,0,0,0,0,91.2v51l243.2,97.28,243.2-97.28v-51A30.41,30.41,0,0,0,456,60.8Z" transform="translate(0 -60.8)"/>
    <path class="cls-1" d="M0,191.88V395.19a30.41,30.41,0,0,0,30.4,30.4H456a30.41,30.41,0,0,0,30.4-30.4V191.88L243.2,289.16Z" transform="translate(0 -60.8)"/>
  </symbol>

  <!--  Secondary Navigation Toggle  -->
  <symbol id="nav-secondary-toggle" viewBox="0 0 612 612">
    <title>Secondary Navigation Toggle</title>
    <circle cx="139.091" cy="306" r="55.636"/>
    <circle cx="472.909" cy="306" r="55.636"/>
    <circle cx="306" cy="306" r="55.636"/>
    <!--<path d="M612,306C612,137.004,474.995,0,306,0C137.004,0,0,137.004,0,306c0,168.995,137.004,306,306,306-->
			<!--C474.995,612,612,474.995,612,306z M27.818,306C27.818,152.36,152.36,27.818,306,27.818S584.182,152.36,584.182,306-->
			<!--S459.64,584.182,306,584.182S27.818,459.64,27.818,306z"/>-->
  </symbol>

  <svg id="location" viewBox="0 0 24 24">
    <title>Location Icon</title>
    <path d="M12,5c1.609,0,3.12,0.614,4.254,1.73C17.38,7.837,18,9.309,18,10.87s-0.62,3.03-1.745,4.139L12,19.193l-4.254-4.186   c-1.125-1.107-1.745-2.576-1.745-4.139s0.62-3.032,1.745-4.141C8.881,5.614,10.393,5,12,5 M12,3C9.953,3,7.904,3.768,6.343,5.305   c-3.124,3.074-3.124,8.057,0,11.131L12,21.999l5.657-5.565c3.124-3.072,3.124-8.056,0-11.129C16.096,3.768,14.048,3,12,3z"/>
    <path d="M12,8.499c0.668,0,1.296,0.26,1.768,0.731c0.976,0.976,0.976,2.562,0,3.537c-0.473,0.472-1.1,0.731-1.768,0.731   s-1.295-0.26-1.768-0.731c-0.976-0.976-0.976-2.562,0-3.537C10.705,8.759,11.333,8.499,12,8.499 M12,7.499   c-0.896,0-1.792,0.342-2.475,1.024c-1.367,1.367-1.367,3.584,0,4.951c0.684,0.684,1.578,1.024,2.475,1.024s1.792-0.342,2.475-1.024   c1.366-1.367,1.366-3.584,0-4.951C13.792,7.84,12.896,7.499,12,7.499z"/>
  </svg>
  
  <svg id="shoppingbag" viewBox="0 0 288.78 289.67"><title>shoppingbag</title><path d="M379.67,189.4c-.38-8.05-7.41-14.49-16-14.49H328.33v-9.39A78.48,78.48,0,0,0,318.14,133c-8.77-15-26.73-33-62.47-33-35.54,0-53.34,18.76-62,34.51a84.79,84.79,0,0,0-10,33.7v6.7H146.9c-8.57,0-15.6,6.44-16,14.49l-20,184-.06.54v.54c0,8.37,7.18,15.19,16,15.19H383.68c8.83,0,16-6.82,16-15.19v-.54ZM203.67,169a65.61,65.61,0,0,1,7.5-24.8C220,128.13,235,120,255.67,120s35.88,7.55,44.85,22.45a59,59,0,0,1,7.81,23.87v8.59H203.67ZM131.48,369.67l19-174.76h33.23v15.83a24.89,24.89,0,1,0,20,.69V194.91H308.33v16a24.91,24.91,0,1,0,20,.41V194.91h31.82l19,174.76Zm66.29-135.8a4.9,4.9,0,1,1-4.9-4.9A4.91,4.91,0,0,1,197.77,233.87Zm125,0a4.9,4.9,0,1,1-4.9-4.9A4.91,4.91,0,0,1,322.77,233.87Z" transform="translate(-110.9 -100)"/></svg>



  <!--
    <symbol id="" viewBox="">
      <title></title>

    </symbol>
  -->

</svg>
